<svg width="86" height="86" viewBox="0 0 86 86" fill="none" xmlns="http://www.w3.org/2000/svg">
<g clip-path="url(#clip0_57_87)">
<path d="M0.577523 30.4673L11.3354 74.36C11.9287 76.7715 13.0918 79.0089 14.7289 80.8878L36.9377 42.8648C37.9302 41.1627 38.2072 39.1423 37.7089 37.2397C37.2106 35.3371 35.977 33.7049 34.2744 32.6955L4.87003 15.4897C2.90826 17.4006 1.48223 19.7844 0.732096 22.4065C-0.0208085 25.0352 -0.0740596 27.8122 0.577523 30.4673Z" fill="white"/>
<path d="M85.6671 56.1123L74.9021 12.2232C73.9187 8.1906 71.3636 4.70775 67.7953 2.53614C66.0377 1.46819 64.0834 0.757022 62.0459 0.443999C60.0084 0.130975 57.9284 0.222338 55.9269 0.712775L13.6255 11.1003L43.291 28.4574C44.4763 29.1512 45.5118 30.0699 46.3381 31.1608C47.166 32.252 47.7719 33.4981 48.1201 34.8251C48.8199 37.5038 48.4288 40.3477 47.031 42.7433L21.9795 85.6152C24.681 86.4559 27.5641 86.543 30.3122 85.8669L74.1647 75.1097C76.1697 74.6177 78.0563 73.7365 79.7151 72.5173C81.3795 71.2935 82.7843 69.7571 83.8495 67.9958C86.0057 64.4242 86.6584 60.1563 85.6671 56.1123Z" fill="#B1FF85"/>
<path d="M0.577523 30.4673L11.3354 74.36C11.9287 76.7715 13.0918 79.0089 14.7289 80.8878L36.9377 42.8648C37.9302 41.1627 38.2072 39.1423 37.7089 37.2397C37.2106 35.3371 35.977 33.7049 34.2744 32.6955L4.87003 15.4897C2.90826 17.4006 1.48223 19.7844 0.732096 22.4065C-0.0208085 25.0352 -0.0740596 27.8122 0.577523 30.4673Z" fill="#1A1A1A"/>
</g>
<defs>
<clipPath id="clip0_57_87">
<rect width="86" height="86" fill="white"/>
</clipPath>
</defs>
</svg>
